REM DIRINDEX 1\2,1\3
REM DIRNAME cjc140,folder01,folder02
TITLE ""
FILE "Track77.mp3" MP3
  TRACK 01 AUDIO
    TITLE "0:"
    INDEX 01 00:00:00
  TRACK 02 AUDIO
    TITLE "3:cjc140_271"
    INDEX 01 00:00:11
  TRACK 03 AUDIO
    TITLE "2:cjc140_272"
    INDEX 01 00:02:18
  TRACK 04 AUDIO
    TITLE "2:cjc140_273"
    INDEX 01 00:09:16
  TRACK 05 AUDIO
    TITLE "2:cjc140_274"
    INDEX 01 00:13:57
  TRACK 06 AUDIO
    TITLE "0:"
    INDEX 01 00:20:04
